<svg width="100" height="100" viewBox="0 0 100 100" fill="none" xmlns="http://www.w3.org/2000/svg">
<rect width="100" height="100" fill="white"/>
<rect x="16" y="9.70801" width="61.4295" height="85.3187" transform="rotate(-4.39524 16 9.70801)" fill="#4F4F4F"/>
<rect x="67" y="2.10352" width="2.87114" height="11.3203" transform="rotate(-2.06801 67 2.10352)" fill="#B7E1C8"/>
<rect x="63.0283" y="4" width="2.87114" height="11.3203" transform="rotate(0.142373 63.0283 4)" fill="#C7B7FF"/>
<rect x="15.7173" y="31.3174" width="10.989" height="11.3203" transform="rotate(-3.08667 15.7173 31.3174)" fill="#F89088"/>
<rect x="15.2642" y="63" width="10.989" height="11.3203" transform="rotate(6.41216 15.2642 63)" fill="#B1E7C8"/>
<rect x="20.1689" y="7" width="61.4295" height="85.3187" transform="rotate(0.78522 20.1689 7)" fill="#4D4D4D"/>
<rect x="72.5269" y="2" width="2.87114" height="11.3203" transform="rotate(7.75141 72.5269 2)" fill="#F8D249"/>
<rect x="18.4409" y="8.30859" width="61.4295" height="85.3187" transform="rotate(-1.21059 18.4409 8.30859)" fill="#333333"/>
<path d="M38 74.675V25.4133C38 25.2223 38.1475 25.0666 38.3385 25.0638C40.0788 25.0381 48.1617 24.9311 53.968 25.069C62.7247 25.277 67 31.4694 67 42.7618C67 51.0875 62.6217 59.2576 53.968 59.2576H50.4023C50.209 59.2576 50.0533 59.4143 50.0533 59.6076V74.675C50.0533 74.8683 49.8966 75.025 49.7033 75.025H38.35C38.1567 75.025 38 74.8683 38 74.675Z" fill="white"/>
<path d="M50.3247 46.4075V37.0322C50.3247 36.8844 50.4157 36.7538 50.5591 36.7184C51.4813 36.4906 54.803 36.0438 54.6709 41.4716C54.541 46.8066 51.5143 46.8395 50.5902 46.7244C50.4321 46.7047 50.3247 46.5668 50.3247 46.4075Z" fill="#333333"/>
</svg>
